<?xml version="1.0" standalone="no"?>
<!DOCTYPE svg PUBLIC "-//W3C//DTD SVG 20010904//EN"
 "http://www.w3.org/TR/2001/REC-SVG-20010904/DTD/svg10.dtd">
<svg version="1.0" xmlns="http://www.w3.org/2000/svg"
 width="232.000000pt" height="60.000000pt" viewBox="0 0 232.000000 60.000000"
 preserveAspectRatio="xMidYMid meet">
<metadata>
Created by potrace 1.14, written by Peter Selinger 2001-2017
</metadata>
<g transform="translate(0.000000,60.000000) scale(0.100000,-0.100000)"
fill="#000000" stroke="none">
<path d="M1227 509 c-35 -20 -47 -72 -47 -196 0 -99 3 -123 19 -149 26 -42 79
-61 131 -45 67 20 75 37 78 183 4 138 -4 177 -42 203 -24 17 -112 19 -139 4z
m121 -35 c21 -14 22 -22 22 -151 0 -113 -3 -140 -17 -155 -23 -25 -87 -24
-113 2 -18 18 -20 33 -20 150 0 117 2 132 20 150 24 24 77 26 108 4z"/>
<path d="M1516 489 c-25 -30 -26 -35 -26 -169 0 -133 1 -140 25 -168 59 -71
195 -36 195 50 0 35 -25 38 -34 4 -9 -38 -34 -56 -76 -56 -30 0 -43 6 -59 26
-19 24 -21 40 -21 144 0 104 2 120 21 144 16 20 29 26 59 26 30 0 43 -6 59
-26 12 -15 21 -33 21 -40 0 -8 7 -14 15 -14 24 0 18 45 -11 79 -23 28 -31 31
-84 31 -53 0 -61 -3 -84 -31z"/>
<path d="M1790 321 c0 -193 1 -201 20 -201 18 0 20 8 22 144 l3 145 81 -142
c44 -77 86 -143 92 -145 9 -3 12 49 12 197 0 193 -1 201 -20 201 -18 0 -20 -8
-22 -142 l-3 -143 -80 139 c-44 77 -86 141 -92 144 -10 3 -13 -41 -13 -197z"/>
<path d="M2080 515 c0 -3 23 -50 50 -105 50 -99 50 -101 50 -195 0 -78 3 -95
15 -95 12 0 15 17 15 89 0 86 2 93 50 196 28 59 50 109 50 111 0 2 -7 4 -15 4
-8 0 -32 -34 -55 -80 -22 -45 -44 -79 -49 -76 -4 3 -23 39 -41 81 -24 55 -38
75 -51 75 -11 0 -19 -2 -19 -5z"/>
<path d="M54 396 c-13 -10 -23 -11 -31 -4 -10 8 -13 -30 -13 -186 0 -168 2
-196 15 -196 12 0 15 14 15 64 l0 64 30 -15 c24 -12 37 -12 62 -4 50 18 57 36
58 148 0 98 -1 102 -26 122 -31 24 -82 27 -110 7z m88 -33 c15 -13 18 -31 18
-103 0 -53 -5 -91 -12 -98 -16 -16 -80 -16 -96 0 -19 19 -16 183 4 202 20 21
63 20 86 -1z"/>
<path d="M296 389 c-25 -20 -26 -24 -26 -120 0 -55 4 -109 10 -119 15 -28 74
-44 112 -31 50 18 57 36 58 148 0 98 -1 102 -26 122 -35 27 -93 27 -128 0z
m106 -26 c15 -13 18 -31 18 -103 0 -53 -5 -91 -12 -98 -16 -16 -80 -16 -96 0
-19 19 -16 183 4 202 20 21 63 20 86 -1z"/>
</g>
</svg>
